<svg width="100" height="100" viewBox="0 0 100 100" fill="none" xmlns="http://www.w3.org/2000/svg">
    <rect width="100" height="100" fill="#FF0606"/>
    <path d="M39.7141 20.9091V50H33.5636V20.9091H39.7141ZM43.6665 25.9801V20.9091H67.5586V25.9801H58.6523V50H52.5728V25.9801H43.6665Z" fill="white"/>
    <path d="M21.683 72.6928L19.2771 73.119C19.1765 72.8112 19.0167 72.5182 18.7977 72.2401C18.5847 71.9619 18.2946 71.734 17.9277 71.5565C17.5607 71.3789 17.1021 71.2901 16.5516 71.2901C15.8 71.2901 15.1726 71.4588 14.6695 71.7962C14.1664 72.1276 13.9149 72.5567 13.9149 73.0835C13.9149 73.5392 14.0836 73.9061 14.4209 74.1843C14.7583 74.4625 15.3028 74.6903 16.0545 74.8679L18.2207 75.3651C19.4754 75.6551 20.4105 76.1019 21.0261 76.7056C21.6416 77.3093 21.9494 78.0935 21.9494 79.0582C21.9494 79.875 21.7126 80.603 21.2391 81.2422C20.7716 81.8755 20.1176 82.3726 19.2771 82.7337C18.4426 83.0947 17.4749 83.2752 16.3741 83.2752C14.8471 83.2752 13.6012 82.9497 12.6365 82.2987C11.6718 81.6417 11.0799 80.7095 10.8609 79.5021L13.4266 79.1115C13.5864 79.7803 13.9149 80.2863 14.4121 80.6296C14.9092 80.967 15.5573 81.1357 16.3563 81.1357C17.2263 81.1357 17.9218 80.9551 18.4426 80.5941C18.9634 80.2272 19.2239 79.7803 19.2239 79.2536C19.2239 78.8274 19.0641 78.4693 18.7445 78.1793C18.4308 77.8893 17.9484 77.6703 17.2974 77.5224L14.9891 77.0163C13.7166 76.7263 12.7756 76.2647 12.166 75.6314C11.5623 74.9981 11.2604 74.1961 11.2604 73.2255C11.2604 72.4206 11.4853 71.7163 11.9351 71.1126C12.385 70.5089 13.0064 70.0384 13.7995 69.701C14.5926 69.3577 15.5011 69.1861 16.525 69.1861C17.9987 69.1861 19.1588 69.5057 20.0051 70.1449C20.8515 70.7782 21.4108 71.6275 21.683 72.6928ZM30.7451 83.2752C29.4016 83.2752 28.2445 82.9882 27.2738 82.4141C26.3091 81.834 25.5634 81.0202 25.0366 79.9727C24.5158 78.9192 24.2554 77.6851 24.2554 76.2706C24.2554 74.8738 24.5158 73.6428 25.0366 72.5774C25.5634 71.5121 26.2973 70.6805 27.2383 70.0827C28.1853 69.485 29.2921 69.1861 30.5586 69.1861C31.3281 69.1861 32.0738 69.3133 32.7959 69.5678C33.5179 69.8223 34.166 70.2218 34.7401 70.7663C35.3142 71.3108 35.767 72.0181 36.0984 72.8881C36.4299 73.7522 36.5956 74.8028 36.5956 76.0398V76.9808H25.7557V74.9922H33.9944C33.9944 74.2938 33.8523 73.6753 33.5682 73.1367C33.2841 72.5922 32.8846 72.1631 32.3697 71.8494C31.8607 71.5357 31.2629 71.3789 30.5764 71.3789C29.8307 71.3789 29.1796 71.5624 28.6233 71.9293C28.0728 72.2904 27.6467 72.7638 27.3449 73.3498C27.0489 73.9298 26.901 74.5601 26.901 75.2408V76.7944C26.901 77.7058 27.0608 78.4812 27.3804 79.1204C27.7059 79.7596 28.1587 80.2479 28.7387 80.5852C29.3187 80.9167 29.9964 81.0824 30.7717 81.0824C31.2748 81.0824 31.7335 81.0114 32.1478 80.8693C32.5621 80.7214 32.9201 80.5024 33.222 80.2124C33.5238 79.9223 33.7547 79.5643 33.9145 79.1381L36.4269 79.5909C36.2257 80.3307 35.8646 80.9788 35.3438 81.5352C34.8289 82.0856 34.1808 82.5147 33.3995 82.8224C32.6242 83.1243 31.7394 83.2752 30.7451 83.2752ZM43.5092 83.3018C42.6451 83.3018 41.8638 83.142 41.1654 82.8224C40.467 82.4969 39.9137 82.0264 39.5053 81.4109C39.1028 80.7953 38.9016 80.0407 38.9016 79.147C38.9016 78.3776 39.0496 77.7443 39.3455 77.2472C39.6414 76.75 40.0409 76.3564 40.544 76.0664C41.0471 75.7764 41.6093 75.5574 42.2308 75.4094C42.8522 75.2615 43.4855 75.149 44.1306 75.0721C44.9474 74.9774 45.6103 74.9004 46.1193 74.8413C46.6283 74.7762 46.9982 74.6726 47.229 74.5305C47.4598 74.3885 47.5752 74.1577 47.5752 73.8381V73.7759C47.5752 73.0006 47.3563 72.3999 46.9183 71.9737C46.4862 71.5476 45.8411 71.3345 44.9829 71.3345C44.0892 71.3345 43.3849 71.5328 42.87 71.9293C42.361 72.32 42.0088 72.755 41.8135 73.2344L39.3188 72.6662C39.6148 71.8376 40.0468 71.1688 40.615 70.6598C41.1891 70.1449 41.849 69.772 42.5948 69.5412C43.3405 69.3045 44.1247 69.1861 44.9474 69.1861C45.4919 69.1861 46.069 69.2512 46.6786 69.3814C47.2941 69.5057 47.8682 69.7365 48.4009 70.0739C48.9395 70.4112 49.3804 70.8936 49.7237 71.521C50.067 72.1424 50.2386 72.9503 50.2386 73.9446V83H47.6463V81.1357H47.5397C47.3681 81.4789 47.1106 81.8163 46.7674 82.1477C46.4241 82.4792 45.9831 82.7544 45.4446 82.9734C44.906 83.1924 44.2608 83.3018 43.5092 83.3018ZM44.0862 81.1712C44.8201 81.1712 45.4475 81.0262 45.9684 80.7362C46.4951 80.4461 46.8946 80.0674 47.1669 79.5998C47.445 79.1263 47.5841 78.6203 47.5841 78.0817V76.3239C47.4894 76.4186 47.3059 76.5073 47.0337 76.5902C46.7674 76.6671 46.4626 76.7352 46.1193 76.7944C45.776 76.8477 45.4416 76.898 45.1161 76.9453C44.7906 76.9867 44.5183 77.0223 44.2993 77.0518C43.7844 77.117 43.3139 77.2264 42.8877 77.3803C42.4675 77.5342 42.1302 77.7562 41.8757 78.0462C41.6271 78.3303 41.5028 78.709 41.5028 79.1825C41.5028 79.8395 41.7455 80.3366 42.2308 80.674C42.7161 81.0054 43.3346 81.1712 44.0862 81.1712ZM53.7742 83V69.3636H56.3399V71.5298H56.4819C56.7305 70.7959 57.1685 70.2189 57.7959 69.7987C58.4291 69.3725 59.1453 69.1594 59.9443 69.1594C60.11 69.1594 60.3053 69.1654 60.5302 69.1772C60.7611 69.189 60.9416 69.2038 61.0718 69.2216V71.7607C60.9652 71.7311 60.7758 71.6985 60.5036 71.663C60.2313 71.6216 59.9591 71.6009 59.6868 71.6009C59.0595 71.6009 58.5002 71.734 58.0089 72.0004C57.5236 72.2608 57.1389 72.6248 56.8548 73.0923C56.5707 73.554 56.4287 74.0807 56.4287 74.6726V83H53.7742ZM68.6246 83.2752C67.3048 83.2752 66.1684 82.9763 65.2155 82.3786C64.2685 81.7749 63.5406 80.9433 63.0316 79.8839C62.5226 78.8245 62.2681 77.6112 62.2681 76.244C62.2681 74.859 62.5285 73.6368 63.0493 72.5774C63.5701 71.5121 64.3041 70.6805 65.251 70.0827C66.198 69.485 67.3136 69.1861 68.598 69.1861C69.6337 69.1861 70.557 69.3784 71.3679 69.7631C72.1787 70.1419 72.8327 70.6746 73.3299 71.3612C73.8329 72.0477 74.1318 72.8497 74.2265 73.767H71.6431C71.501 73.1278 71.1755 72.5774 70.6665 72.1158C70.1634 71.6541 69.4887 71.4233 68.6424 71.4233C67.9025 71.4233 67.2545 71.6186 66.6981 72.0092C66.1477 72.3939 65.7186 72.9444 65.4108 73.6605C65.1031 74.3707 64.9492 75.2112 64.9492 76.1818C64.9492 77.1761 65.1001 78.0343 65.4019 78.7564C65.7038 79.4785 66.1299 80.0378 66.6804 80.4343C67.2367 80.8308 67.8907 81.0291 68.6424 81.0291C69.1454 81.0291 69.6012 80.9374 70.0095 80.7539C70.4238 80.5645 70.7701 80.2952 71.0483 79.946C71.3323 79.5968 71.5306 79.1766 71.6431 78.6854H74.2265C74.1318 79.5672 73.8448 80.3544 73.3654 81.0469C72.886 81.7393 72.2438 82.2839 71.4389 82.6804C70.6399 83.0769 69.7018 83.2752 68.6246 83.2752ZM79.7197 74.9034V83H77.0652V64.8182H79.6842V71.5831H79.8528C80.1725 70.8492 80.6607 70.2662 81.3177 69.8342C81.9747 69.4021 82.8328 69.1861 83.8923 69.1861C84.8274 69.1861 85.6442 69.3784 86.3426 69.7631C87.0469 70.1478 87.5914 70.7219 87.9761 71.4854C88.3667 72.243 88.562 73.19 88.562 74.3263V83H85.9075V74.646C85.9075 73.6457 85.6501 72.8704 85.1352 72.32C84.6203 71.7636 83.9041 71.4854 82.9867 71.4854C82.3594 71.4854 81.7971 71.6186 81.2999 71.8849C80.8087 72.1513 80.421 72.5419 80.1369 73.0568C79.8588 73.5658 79.7197 74.1813 79.7197 74.9034Z" fill="white"/>
</svg>
